PathFileType	3	(X/Y/Z)	F:\ViconData\AntennenMessung\Messung1\Session1\ID18.trc
DataRate	CameraRate	NumFrames	NumMarkers	Units	OrigDataRate	OrigDataStartFrame	OrigNumFrames
120.0	120.0	5	70	mm	120.0	511	1020	
Frame#	Time	Ashort			Along			Atop			A4			Bshort			Blong			Btop			B4			Cshort			Clong			Ctop			C4			Dshort			Dlong			Dtop			D4			Eshort			Elong			Etop			E4			Fshort			Flong			Ftop			F4			Gshort			Glong			Gtop			G4			Hshort			Hlong			Htop			H4			I1			I2			I3			I4			I5			WandAshort			WandAlong			WandAtop			WandA4			WandA15			WandBshort			WandB4			WandB5			WandBtop			WandBlong			WandCshort			WandClong			WandCtop			WandC4			WandC5			Acenter			Aantenna			Bcenter			Bantenna			Ccenter			Cantenna			Dcenter			Dantenna			Ecenter			Eantenna			Fcenter			Fantenna			Gcenter			Gantenna			Hcenter			Hantenna			Icenter			Iantenna			
		X1	Y1	Z1	X2	Y2	Z2	X3	Y3	Z3	X4	Y4	Z4	X5	Y5	Z5	X6	Y6	Z6	X7	Y7	Z7	X8	Y8	Z8	X9	Y9	Z9	X10	Y10	Z10	X11	Y11	Z11	X12	Y12	Z12	X13	Y13	Z13	X14	Y14	Z14	X15	Y15	Z15	X16	Y16	Z16	X17	Y17	Z17	X18	Y18	Z18	X19	Y19	Z19	X20	Y20	Z20	X21	Y21	Z21	X22	Y22	Z22	X23	Y23	Z23	X24	Y24	Z24	X25	Y25	Z25	X26	Y26	Z26	X27	Y27	Z27	X28	Y28	Z28	X29	Y29	Z29	X30	Y30	Z30	X31	Y31	Z31	X32	Y32	Z32	X33	Y33	Z33	X34	Y34	Z34	X35	Y35	Z35	X36	Y36	Z36	X37	Y37	Z37	X38	Y38	Z38	X39	Y39	Z39	X40	Y40	Z40	X41	Y41	Z41	X42	Y42	Z42	X43	Y43	Z43	X44	Y44	Z44	X45	Y45	Z45	X46	Y46	Z46	X47	Y47	Z47	X48	Y48	Z48	X49	Y49	Z49	X50	Y50	Z50	X51	Y51	Z51	X52	Y52	Z52	X53	Y53	Z53	X54	Y54	Z54	X55	Y55	Z55	X56	Y56	Z56	X57	Y57	Z57	X58	Y58	Z58	X59	Y59	Z59	X60	Y60	Z60	X61	Y61	Z61	X62	Y62	Z62	X63	Y63	Z63	X64	Y64	Z64	X65	Y65	Z65	X66	Y66	Z66	X67	Y67	Z67	X68	Y68	Z68	X69	Y69	Z69	X70	Y70	Z70	
511	4.25	-1038.2144	214.47009	-1644.2118	-1109.4042	204.0907	-1599.3193	-1063.7783	173.21974	-1625.667	-1054.2087	262.28366	-1635.0009	-1352.9792	234.88641	1003.7294	-1281.3898	227.13565	1052.5134	-1322.9062	193.80301	1021.0148	-1284.7574	287.84137	1052.8804	813.92407	187.68436	1209.5729	892.14069	178.44682	1179.2943	844.33075	145.63766	1198.2142	860.5932	292.7348	1167.4474	1115.7218	209.8351	-1401.7797	1056.1526	193.98668	-1460.3055	1095.1096	162.34264	-1423.9735	1069.7897	238.63554	-1425.7806	-1204.5065	1685.937	-1563.2037	-1129.1638	1688.2802	-1606.0446	-1173.1832	1724.4244	-1581.9575	-1134.0659	1580.9423	-1603.8677	-1239.6503	1699.1696	1119.4963	-1309.0837	1698.2928	1071.7446	-1270.4436	1736.3318	1096.8961	-1244.6855	1593.6853	1106.6722	988.92157	1664.2979	1162.2633	957.5658	1700.3569	1183.8785	922.74725	1662.0338	1215.1285	939.78723	1659.4292	1159.8629	998.97302	1668.452	-1579.4669	1058.7999	1670.115	-1518.665	1024.9252	1708.0145	-1551.1445	1059.2084	1672.119	-1585.4874	-261.36392	164.30774	-221.65199	-346.11819	171.88751	-224.28067	-303.29266	129.05002	-221.77972	-299.5975	169.49428	-191.67107	-297.90979	166.36646	-270.17142																																														-1068.7112	210.02367	-1624.9802	-1073.8912	248.67139	-1624.2593	-1321.6124	231.49043	1025.1039	-1320.2823	270.2403	1029.3083	848.09601	183.64857	1196.3445	851.93597	222.4122	1194.4377	1088.6829	202.64137	-1428.345	1082.5759	240.93562	-1432.4989	-1171.8973	1686.951	-1581.7456	-1170.5599	1647.9746	-1581.5251	-1270.7858	1698.7762	1098.0834	-1271.1411	1659.7975	1099.3156	953.17316	1705.4084	1186.9066	972.94019	1733.588	1168.5715	1026.4292	1669.2151	-1551.5632	1027.9399	1630.2466	-1551.984	-299.79901	167.74509	-222.84406	-296.29346	206.57254	-223.91205
512	4.2583333	-1038.1991	214.46873	-1644.3212	-1109.3853	204.04721	-1599.3037	-1063.7539	173.15709	-1625.6881	-1054.243	262.26544	-1634.9969	-1353.0283	234.88341	1003.7639	-1281.3215	227.10788	1052.4821	-1322.7969	193.90012	1020.9481	-1284.6965	287.84857	1052.8252	813.94116	187.70805	1209.6104	892.15723	178.40422	1179.2816	844.36151	145.6062	1198.2378	860.66376	292.71136	1167.3997	1115.7207	209.80974	-1401.785	1056.2272	194.10109	-1460.3766	1095.1367	162.3792	-1423.9739	1069.8212	238.66759	-1425.7733	-1204.5314	1685.9491	-1563.2042	-1129.158	1688.2661	-1606.0343	-1173.1971	1724.4462	-1581.9597	-1134.0645	1580.9585	-1603.8851	-1239.6594	1699.1837	1119.4912	-1309.0267	1698.2478	1071.7335	-1270.4371	1736.3131	1096.8915	-1244.6526	1593.7938	1106.6602	988.87958	1664.2345	1162.276	957.54767	1700.3527	1183.8594	922.88922	1662.0966	1215.1061	939.78082	1659.4095	1159.9512	998.97766	1668.4408	-1579.45	1058.792	1670.1154	-1518.6622	1024.915	1708.01	-1551.1283	1059.2123	1672.1373	-1585.4808	-261.32956	164.30437	-221.53845	-346.58997	172.6328	-224.54022	-303.25342	129.13921	-221.89044	-299.63458	169.47571	-191.67751	-297.80685	166.35622	-270.1167																																														-1068.7236	209.99997	-1625.0177	-1073.9364	248.64363	-1624.3145	-1321.569	231.47212	1025.1376	-1320.3031	270.21149	1029.457	848.15149	183.6387	1196.345	852.0141	222.399	1194.416	1088.7745	202.69489	-1428.3225	1082.7295	241.00133	-1432.4546	-1171.9177	1686.9517	-1581.7365	-1170.5876	1647.975	-1581.5045	-1270.752	1698.764	1098.0847	-1271.0789	1659.7852	1099.3234	953.23743	1705.3212	1186.8284	972.9939	1733.4602	1168.4198	1026.4303	1669.2094	-1551.5505	1027.9521	1630.2413	-1551.9746	-299.42007	168.02513	-222.8795	-295.59531	206.82457	-223.86636
513	4.2666667	-1038.207	214.40866	-1644.2839	-1109.3677	204.11726	-1599.3248	-1063.7112	173.21568	-1625.733	-1054.2377	262.21381	-1634.9528	-1353.0369	234.87173	1003.7495	-1281.3856	227.22212	1052.3762	-1322.8538	193.83752	1020.9935	-1284.7102	287.85184	1052.8934	813.92651	187.5722	1209.5709	892.20013	178.4931	1179.3025	844.31207	145.6713	1198.2743	860.55743	292.74008	1167.4386	1115.6798	209.56618	-1401.6129	1056.1475	194.08549	-1460.312	1095.136	162.437	-1423.8948	1069.8209	238.65648	-1425.7964	-1204.5316	1685.9453	-1563.2153	-1129.1487	1688.2612	-1606.0144	-1173.1851	1724.4385	-1581.9604	-1134.0725	1580.9587	-1603.8737	-1239.6984	1699.2612	1119.5237	-1309.0815	1698.3412	1071.751	-1270.4147	1736.2904	1096.8827	-1244.6635	1593.7999	1106.5264	988.92072	1664.2689	1162.2668	957.51331	1700.2866	1183.8842	922.7912	1662.0959	1215.1779	939.77191	1659.4275	1159.8838	998.96448	1668.433	-1579.4456	1058.8011	1670.1323	-1518.6581	1024.9203	1707.9955	-1551.135	1059.2107	1672.1251	-1585.4733	-261.36075	164.34206	-221.65146	-346.12613	171.88194	-224.30594	-303.25986	129.18745	-221.91962	-299.63651	169.48009	-191.66129	-297.91428	166.36475	-270.20584																																														-1068.615	210.011	-1625.0721	-1073.7664	248.66306	-1624.3781	-1321.6051	231.51602	1025.0809	-1320.3209	270.26752	1029.2847	847.98871	183.62126	1196.3988	851.74506	222.39264	1194.483	1088.8298	202.58415	-1428.087	1082.8101	240.90837	-1432.089	-1171.9071	1686.9476	-1581.7382	-1170.5784	1647.9709	-1581.507	-1270.7747	1698.8491	1098.1266	-1271.1493	1659.8723	1099.4214	953.04388	1705.412	1186.9602	972.7417	1733.6155	1168.5875	1026.4333	1669.2129	-1551.5402	1027.9535	1630.2448	-1551.9473	-299.79938	167.76117	-222.85519	-296.31573	206.59386	-223.79706
514	4.275	-1038.235	214.5611	-1644.27	-1109.3978	204.1104	-1599.3267	-1063.7657	173.18156	-1625.6945	-1054.1996	262.23181	-1634.9681	-1353.0641	234.83969	1003.8078	-1281.3683	227.12337	1052.5115	-1322.8835	193.81378	1020.9869	-1284.7688	287.82019	1052.8464	813.9776	187.62888	1209.5841	892.16968	178.51959	1179.2983	844.35303	145.57793	1198.3125	860.724	292.70618	1167.6447	1115.7172	209.83293	-1401.7747	1056.1875	194.04457	-1460.2842	1095.1012	162.36343	-1423.9771	1069.7952	238.64478	-1425.7838	-1204.5203	1685.9379	-1563.204	-1129.1562	1688.2958	-1606.0568	-1173.188	1724.4281	-1581.9596	-1134.0662	1580.9596	-1603.8879	-1239.6499	1699.1801	1119.4904	-1309.0245	1698.2168	1071.7107	-1270.4336	1736.3134	1096.8837	-1244.6379	1593.8185	1106.486	988.93066	1664.3074	1162.2804	957.49664	1700.389	1183.8566	922.72522	1662.1047	1215.101	939.78424	1659.4474	1159.8956	998.97272	1668.4294	-1579.4427	1058.7938	1670.1353	-1518.6636	1024.9192	1708.0046	-1551.1343	1059.2031	1672.1277	-1585.4781	-261.353	164.30217	-221.56738	-346.12573	171.87822	-224.30519	-303.33707	129.08141	-221.74121	-299.5929	169.49945	-191.66057	-297.97604	166.40578	-270.16705																																														-1068.7462	210.08031	-1625.0004	-1073.9619	248.72311	-1624.2734	-1321.6556	231.45932	1025.1438	-1320.392	270.20334	1029.4219	848.04449	183.66011	1196.389	851.80267	222.4292	1194.4309	1088.6947	202.66606	-1428.334	1082.6067	240.9648	-1432.4745	-1171.8982	1686.9584	-1581.7532	-1170.5566	1647.9821	-1581.5385	-1270.7362	1698.7483	1098.0806	-1271.0504	1659.7693	1099.3225	953.09576	1705.4404	1186.8772	972.84503	1733.6206	1168.5242	1026.4364	1669.2125	-1551.5389	1027.9607	1630.2445	-1551.9456	-299.84744	167.74237	-222.81058	-296.34283	206.56973	-223.88457
515	4.2833333	-1038.2036	214.43533	-1644.2917	-1109.3828	204.11882	-1599.3253	-1063.7247	173.20366	-1625.7139	-1054.2126	262.20428	-1634.9579	-1352.9789	234.91896	1003.715	-1281.3381	227.15723	1052.4954	-1322.8486	193.75041	1020.9948	-1284.6165	287.91537	1052.6833	813.92285	187.74744	1209.5616	892.07556	178.24744	1179.3971	844.30249	145.6534	1198.2095	860.57166	292.68188	1167.4034	1115.7168	209.85393	-1401.769	1056.2792	194.12247	-1460.3367	1095.0753	162.34683	-1423.9677	1069.8051	238.66113	-1425.79	-1204.5151	1685.9406	-1563.2102	-1129.1656	1688.2838	-1606.0048	-1173.1877	1724.4354	-1581.9612	-1134.0602	1580.9528	-1603.8853	-1239.6407	1699.1497	1119.4814	-1309.0923	1698.3464	1071.7695	-1270.4298	1736.329	1096.885	-1244.6927	1593.6718	1106.501	988.91498	1664.278	1162.2615	957.5155	1700.3527	1183.8612	922.82782	1661.9883	1215.0389	939.7569	1659.4272	1159.8785	998.97125	1668.4561	-1579.467	1058.8029	1670.1173	-1518.6483	1024.9108	1708.0078	-1551.1344	1059.2023	1672.1321	-1585.4739	-261.34253	164.31033	-221.48859	-346.58328	172.66051	-224.54256	-303.27832	129.15771	-221.83797	-299.65747	169.51288	-191.71764	-297.90594	166.37054	-270.19464																																														-1068.6476	210.02286	-1625.059	-1073.8152	248.67285	-1624.3718	-1321.5586	231.51482	1025.109	-1320.2349	270.26306	1029.3306	848.18964	183.58205	1196.3356	852.16113	222.33205	1194.4211	1088.7256	202.71011	-1428.3651	1082.6996	241.01508	-1432.5385	-1171.8947	1686.9548	-1581.7368	-1170.55	1647.9788	-1581.5037	-1270.8093	1698.7891	1098.0691	-1271.2032	1659.8105	1099.2987	953.19843	1705.3123	1186.8309	972.95294	1733.4924	1168.483	1026.4229	1669.2181	-1551.5624	1027.9419	1630.2502	-1551.9924	-299.43286	168.04166	-222.85326	-295.59601	206.83923	-223.86632
